<svg xmlns="http://www.w3.org/2000/svg" width="72" height="72" viewBox="0 0 72 72">
  <metadata><?xpacket begin="﻿" id="W5M0MpCehiHzreSzNTczkc9d"?>
<x:xmpmeta xmlns:x="adobe:ns:meta/" x:xmptk="Adobe XMP Core 5.6-c142 79.160924, 2017/07/13-01:06:39        ">
   <rdf:RDF xmlns:rdf="http://www.w3.org/1999/02/22-rdf-syntax-ns#">
      <rdf:Description rdf:about=""/>
   </rdf:RDF>
</x:xmpmeta>
                                                                                                    
                                                                                                    
                                                                                                    
                                                                                                    
                                                                                                    
                                                                                                    
                                                                                                    
                                                                                                    
                                                                                                    
                                                                                                    
                                                                                                    
                                                                                                    
                                                                                                    
                                                                                                    
                                                                                                    
                                                                                                    
                                                                                                    
                                                                                                    
                                                                                                    
                                                                                                    
                           
<?xpacket end="w"?></metadata>
<defs>
    <style>
      .cls-1 {
        fill: #fff;
        fill-rule: evenodd;
      }
    </style>
  </defs>
  <path id="addcalendar" class="cls-1" d="M6085,1751v-9h6v9h9v6h-9v9h-6v-9h-9v-6h9Zm27-18v-9h-6v3h-6v-3h-24v3h-6v-3h-6v9h48Zm0,6h-48v30h48v-30Zm-6-21h6a6,6,0,0,1,6,6v45a6,6,0,0,1-6,6h-48a6,6,0,0,1-6-6v-45a6,6,0,0,1,6-6h6v-3h6v3h24v-3h6v3Z" transform="translate(-6052 -1709)"/>
</svg>
