<svg id="appointment" xmlns="http://www.w3.org/2000/svg" width="48" height="48" viewBox="0 0 48 48">
  <metadata><?xpacket begin="﻿" id="W5M0MpCehiHzreSzNTczkc9d"?>
<x:xmpmeta xmlns:x="adobe:ns:meta/" x:xmptk="Adobe XMP Core 5.6-c142 79.160924, 2017/07/13-01:06:39        ">
   <rdf:RDF xmlns:rdf="http://www.w3.org/1999/02/22-rdf-syntax-ns#">
      <rdf:Description rdf:about=""/>
   </rdf:RDF>
</x:xmpmeta>
                                                                                                    
                                                                                                    
                                                                                                    
                                                                                                    
                                                                                                    
                                                                                                    
                                                                                                    
                                                                                                    
                                                                                                    
                                                                                                    
                                                                                                    
                                                                                                    
                                                                                                    
                                                                                                    
                                                                                                    
                                                                                                    
                                                                                                    
                                                                                                    
                                                                                                    
                                                                                                    
                           
<?xpacket end="w"?></metadata>
<defs>
    <style>
      .cls-1 {
        fill: #ffb24d;
        opacity: 0;
      }

      .cls-2 {
        fill: #fff;
        fill-rule: evenodd;
      }
    </style>
  </defs>
  <rect id="矩形_4" data-name="矩形 4" class="cls-1" width="48" height="48"/>
  <path id="形状_521" data-name="形状 521" class="cls-2" d="M3899,1320v-6h-4v2h-4v-2h-16v2h-4v-2h-4v6h32Zm0,4h-32v20h32v-20Zm-4-14h4a4,4,0,0,1,4,4v30a4,4,0,0,1-4,4h-32a4,4,0,0,1-4-4v-30a4,4,0,0,1,4-4h4v-2h4v2h16v-2h4v2Zm-14,25.17,8.59-8.58,2.82,2.82L3881,1340.83l-7.41-7.42,2.82-2.82Z" transform="translate(-3859 -1304)"/>
</svg>
