<svg xmlns="http://www.w3.org/2000/svg" width="72" height="72" viewBox="0 0 72 72">
  <metadata><?xpacket begin="﻿" id="W5M0MpCehiHzreSzNTczkc9d"?>
<x:xmpmeta xmlns:x="adobe:ns:meta/" x:xmptk="Adobe XMP Core 5.6-c142 79.160924, 2017/07/13-01:06:39        ">
   <rdf:RDF xmlns:rdf="http://www.w3.org/1999/02/22-rdf-syntax-ns#">
      <rdf:Description rdf:about=""/>
   </rdf:RDF>
</x:xmpmeta>
                                                                                                    
                                                                                                    
                                                                                                    
                                                                                                    
                                                                                                    
                                                                                                    
                                                                                                    
                                                                                                    
                                                                                                    
                                                                                                    
                                                                                                    
                                                                                                    
                                                                                                    
                                                                                                    
                                                                                                    
                                                                                                    
                                                                                                    
                                                                                                    
                                                                                                    
                                                                                                    
                           
<?xpacket end="w"?></metadata>
<defs>
    <style>
      .cls-1 {
        fill: #fff;
        fill-rule: evenodd;
      }
    </style>
  </defs>
  <path id="edit" class="cls-1" d="M6096.41,2011.34l-18.32,18.31a6.182,6.182,0,0,0-2.09,3.95v6.41h6.19a6.162,6.162,0,0,0,4.29-2.23l18.19-18.18Zm4.24-4.25,8.26,8.27,2.68-2.69a1.364,1.364,0,0,0,0-1.95l-6.31-6.32a1.377,1.377,0,0,0-.97-0.4,1.413,1.413,0,0,0-.97.4ZM6118,2031v21a6,6,0,0,1-6,6h-48a6,6,0,0,1-6-6v-48a6,6,0,0,1,6-6h21v6h-21v48h48v-21h6Zm-13.69-33a7.321,7.321,0,0,1,5.22,2.17l6.31,6.3a7.4,7.4,0,0,1,0,10.45l-24.97,24.95a12.145,12.145,0,0,1-8.47,4.14H6070v-3l0.01-9.65a12.187,12.187,0,0,1,3.97-8.08l25.11-25.11A7.355,7.355,0,0,1,6104.31,1998Z" transform="translate(-6052 -1992)"/>
</svg>
