<?xml version="1.0" encoding="utf-8"?>
<!-- Generator: Adobe Illustrator 22.1.0, SVG Export Plug-In . SVG Version: 6.00 Build 0)  -->
<svg   fill="#ffffff" version="1.1" id="图层_1" xmlns="http://www.w3.org/2000/svg" xmlns:xlink="http://www.w3.org/1999/xlink" x="0px" y="0px"
	 viewBox="0 0 24 24" style="enable-background:new 0 0 24 24;" xml:space="preserve">
<path d="M15,3.4V7h3.6L15,3.4z M19,9h-4c-1.1,0-2-0.9-2-2V3H5v18h14V9z M5,1h10.4L21,6.6V21c0,1.1-0.9,2-2,2H5c-1.1,0-2-0.9-2-2V3
	C3,1.9,3.9,1,5,1z M11,15.6l4.3-4.3l1.4,1.4L11,18.4l-3.7-3.7l1.4-1.4L11,15.6z"/>
</svg>
