<svg id="图层_1" data-name="图层 1" xmlns="http://www.w3.org/2000/svg" viewBox="0 0 739 280"><defs><style>.cls-1{fill:#c4e2f2;}.cls-2{fill:#2d303b;}.cls-3{fill:#3c3f4d;}.cls-4{fill:#ffd348;}.cls-5{fill:#ffbe1d;}.cls-6{fill:#32cc77;}.cls-7{fill:#40b572;}.cls-8{fill:#fff;}.cls-9{fill:#999;}</style></defs><title>sketch_signin</title><path class="cls-1" d="M459.8,47.47V197.82A24.21,24.21,0,0,0,484,222H714.66a24.21,24.21,0,0,0,24.21-24.22V47.47a24,24,0,0,0-24-23.95H483.76A24,24,0,0,0,459.8,47.47Z"/><path class="cls-2" d="M655.63,254.34l-56.29,12.83-56.29-12.83,7.71-32.3,46.19-17,51,17,2.49,10.46Z"/><path class="cls-3" d="M738.88,195v2.85A24.23,24.23,0,0,1,714.66,222H484a24.21,24.21,0,0,1-24.2-24.22V195Z"/><path class="cls-3" d="M655.63,254.34h-86.1l5.22-21.84h75.66Z"/><path class="cls-2" d="M688.8,272.33V280H509.88v-7.67a18,18,0,0,1,18-18h143A18,18,0,0,1,688.8,272.33Z"/><path class="cls-3" d="M688.8,272.33V280H540.63v-7.67a18,18,0,0,1,18-18h112.2A18,18,0,0,1,688.8,272.33Z"/><path class="cls-3" d="M723.25,117.74h-41a4.27,4.27,0,1,1,0-8.54h41a4.27,4.27,0,0,1,0,8.54Z"/><path class="cls-3" d="M723.25,137.68H690.79a4.27,4.27,0,1,1,0-8.54h32.46a4.27,4.27,0,0,1,0,8.54Z"/><path class="cls-3" d="M154.13,279.45H20.6A20.47,20.47,0,0,1,.12,259V20.48A20.48,20.48,0,0,1,20.6,0H154.13a20.47,20.47,0,0,1,20.48,20.48V259A20.47,20.47,0,0,1,154.13,279.45Z"/><path class="cls-2" d="M98.74,261.45a11.38,11.38,0,1,1-11.37-11.37A11.37,11.37,0,0,1,98.74,261.45Z"/><path class="cls-1" d="M157.55,46.15v187a10.32,10.32,0,0,1-10.33,10.33H27.51a10.33,10.33,0,0,1-10.33-10.33v-187A10.34,10.34,0,0,1,27.51,35.82H147.22A10.33,10.33,0,0,1,157.55,46.15Z"/><path class="cls-2" d="M102.64,21.45H72.1a4.32,4.32,0,1,1,0-8.64h30.54a4.32,4.32,0,0,1,0,8.64Z"/><path class="cls-2" d="M144.85,197.12h-26v-8.64h17.33V161.89h8.64Z"/><path class="cls-2" d="M72.07,124.34H29.88V82.15H72.07ZM38.53,115.7h24.9V90.8H38.53Z"/><path class="cls-2" d="M144.85,124.34H102.66V82.15h42.19Zm-33.54-8.64h24.9V90.8h-24.9Z"/><path class="cls-2" d="M72.07,197.12H29.88V154.93H72.07Zm-33.54-8.64h24.9v-24.9H38.53Z"/><path class="cls-2" d="M43.73,168.78h14.5v14.5H43.73Z"/><path class="cls-2" d="M43.73,96h14.5v14.5H43.73Z"/><path class="cls-2" d="M91.69,161.31H83.05v-16.9H29.88v-8.65H91.69Z"/><path class="cls-2" d="M110.62,180.91H79.89v-8.65H102V135.32h8.64Z"/><path class="cls-2" d="M120,135.32h8.64v45.59H120Z"/><path class="cls-2" d="M136.21,135.32h8.64v11.39h-8.64Z"/><path class="cls-2" d="M83.05,100h8.64v24.31H83.05Z"/><path class="cls-2" d="M83.05,82.15h8.64V94.93H83.05Z"/><path class="cls-2" d="M94.29,188.48h16.33v8.64H94.29Z"/><path class="cls-2" d="M116.51,96H131v14.5h-14.5Z"/><path class="cls-4" d="M692.56,32s0,136-93.22,155.52C506.12,168,506.12,32,506.12,32L599.34,1.09Z"/><path class="cls-5" d="M599.34,1.09V187.53C506.12,168,506.12,32,506.12,32Z"/><path class="cls-6" d="M672.78,45.49a241.2,241.2,0,0,1-10.26,52c-12.71,39.15-33.95,62.85-63.18,70.52-29.44-7.73-50.77-31.7-63.44-71.33a240.05,240.05,0,0,1-10-51.16l73.45-24.36Z"/><path class="cls-7" d="M599.34,21.14V168c-29.44-7.73-50.78-31.7-63.44-71.33a240.05,240.05,0,0,1-10-51.16Z"/><path class="cls-6" d="M641.1,94.31a41.76,41.76,0,1,1-41.76-41.76A41.76,41.76,0,0,1,641.1,94.31Z"/><path class="cls-8" d="M595,119.63a4.28,4.28,0,0,1-3.73-2.2l-11.39-20.5a4.27,4.27,0,1,1,7.47-4.15l7.4,13.32,16.35-33.62a4.27,4.27,0,0,1,7.68,3.74l-19.93,41a4.29,4.29,0,0,1-3.73,2.41Z"/><path class="cls-9" d="M323.45,198.52l-2.34-2.34,1.17-1.17a77.81,77.81,0,0,0,0-110l-1.17-1.17,2.34-2.34,1.17,1.17a81.12,81.12,0,0,1,0,114.7Zm-18.73-18.73-2.34-2.34,1.17-1.17a51.3,51.3,0,0,0,0-72.56l-1.17-1.17,2.34-2.34,1.17,1.17a54.61,54.61,0,0,1,0,77.24ZM286,161.07l-2.34-2.34,1.17-1.17a24.87,24.87,0,0,0,0-35.11l-1.17-1.17,2.34-2.35,1.17,1.17a28.18,28.18,0,0,1,0,39.8Z"/></svg>