<svg xmlns="http://www.w3.org/2000/svg" width="48" height="48" viewBox="0 0 48 48">
  <metadata><?xpacket begin="﻿" id="W5M0MpCehiHzreSzNTczkc9d"?>
<x:xmpmeta xmlns:x="adobe:ns:meta/" x:xmptk="Adobe XMP Core 5.6-c142 79.160924, 2017/07/13-01:06:39        ">
   <rdf:RDF xmlns:rdf="http://www.w3.org/1999/02/22-rdf-syntax-ns#">
      <rdf:Description rdf:about=""/>
   </rdf:RDF>
</x:xmpmeta>
                                                                                                    
                                                                                                    
                                                                                                    
                                                                                                    
                                                                                                    
                                                                                                    
                                                                                                    
                                                                                                    
                                                                                                    
                                                                                                    
                                                                                                    
                                                                                                    
                                                                                                    
                                                                                                    
                                                                                                    
                                                                                                    
                                                                                                    
                                                                                                    
                                                                                                    
                                                                                                    
                           
<?xpacket end="w"?></metadata>
<defs>
    <style>
      .cls-1 {
        fill: #ff3e43;
        fill-rule: evenodd;
      }
    </style>
  </defs>
  <path id="pause-red" class="cls-1" d="M6421,2531h4a4,4,0,0,1,4,4v32a4,4,0,0,1-4,4h-4a4,4,0,0,1-4-4v-32A4,4,0,0,1,6421,2531Zm16,0h4a4,4,0,0,1,4,4v32a4,4,0,0,1-4,4h-4a4,4,0,0,1-4-4v-32A4,4,0,0,1,6437,2531Z" transform="translate(-6407 -2527)"/>
</svg>
