<svg xmlns="http://www.w3.org/2000/svg" width="72" height="72" viewBox="0 0 72 72">
  <metadata><?xpacket begin="﻿" id="W5M0MpCehiHzreSzNTczkc9d"?>
<x:xmpmeta xmlns:x="adobe:ns:meta/" x:xmptk="Adobe XMP Core 5.6-c142 79.160924, 2017/07/13-01:06:39        ">
   <rdf:RDF xmlns:rdf="http://www.w3.org/1999/02/22-rdf-syntax-ns#">
      <rdf:Description rdf:about=""/>
   </rdf:RDF>
</x:xmpmeta>
                                                                                                    
                                                                                                    
                                                                                                    
                                                                                                    
                                                                                                    
                                                                                                    
                                                                                                    
                                                                                                    
                                                                                                    
                                                                                                    
                                                                                                    
                                                                                                    
                                                                                                    
                                                                                                    
                                                                                                    
                                                                                                    
                                                                                                    
                                                                                                    
                                                                                                    
                                                                                                    
                           
<?xpacket end="w"?></metadata>
<defs>
    <style>
      .cls-1 {
        fill: #fff;
        fill-rule: evenodd;
      }
    </style>
  </defs>
  <path id="phonecall" class="cls-1" d="M6406.22,1727.83c1.77,1.96,1.21,4.19-.36,6.31a15.59,15.59,0,0,1-1.32,1.54c-0.25.26-.44,0.46-0.85,0.86-0.92.93-1.7,1.7-2.32,2.33-0.31.3,1.77,4.46,5.81,8.49s8.18,6.12,8.49,5.81l2.32-2.32a17.392,17.392,0,0,1,2.89-2.51c1.93-1.27,4.04-1.61,5.82-.02,5.82,4.16,9.11,6.71,10.72,8.38a8.19,8.19,0,0,1,.02,11.16c-0.95.99-2.14,2.18-3.55,3.54-8.52,8.52-26.51,3.34-40.29-10.46s-18.98-31.78-10.47-40.28c1.52-1.55,2.03-2.06,3.52-3.52a8.235,8.235,0,0,1,11.22,0C6399.55,1718.8,6402.23,1722.25,6406.22,1727.83Zm16.06,27.3-2.33,2.33c-3.95,3.95-10.67.58-17.06-5.81s-9.76-13.12-5.81-17.07c0.63-.62,1.4-1.4,2.33-2.32,0.37-.37.54-0.54,0.74-0.76,0.28-.29.51-0.55,0.69-0.77a89.559,89.559,0,0,0-7.23-9.28,2.263,2.263,0,0,0-2.71.01c-1.47,1.44-1.95,1.92-3.47,3.47-5.47,5.47-1.28,19.98,10.45,31.73s26.26,15.93,31.77,10.42q2.07-2.01,3.38-3.39a2.162,2.162,0,0,0,.02-2.79c-1.2-1.25-4.15-3.55-9.24-7.2C6423.44,1754,6422.98,1754.43,6422.28,1755.13Zm-7.94-39.99a28.814,28.814,0,0,1,25.09,25.08l-5.99,1a22.753,22.753,0,0,0-20.1-20.09Zm-1.99,11.98a16.686,16.686,0,0,1,15.1,15.1l-6.01,1a10.61,10.61,0,0,0-10.1-10.09Z" transform="translate(-6373.315 -1709.25)"/>
</svg>
