<svg id="photo" xmlns="http://www.w3.org/2000/svg" width="48" height="48" viewBox="0 0 48 48">
  <metadata><?xpacket begin="﻿" id="W5M0MpCehiHzreSzNTczkc9d"?>
<x:xmpmeta xmlns:x="adobe:ns:meta/" x:xmptk="Adobe XMP Core 5.6-c142 79.160924, 2017/07/13-01:06:39        ">
   <rdf:RDF xmlns:rdf="http://www.w3.org/1999/02/22-rdf-syntax-ns#">
      <rdf:Description rdf:about=""/>
   </rdf:RDF>
</x:xmpmeta>
                                                                                                    
                                                                                                    
                                                                                                    
                                                                                                    
                                                                                                    
                                                                                                    
                                                                                                    
                                                                                                    
                                                                                                    
                                                                                                    
                                                                                                    
                                                                                                    
                                                                                                    
                                                                                                    
                                                                                                    
                                                                                                    
                                                                                                    
                                                                                                    
                                                                                                    
                                                                                                    
                           
<?xpacket end="w"?></metadata>
<defs>
    <style>
      .cls-1 {
        fill: #ffb24d;
        opacity: 0;
      }

      .cls-2 {
        fill: #fff;
        fill-rule: evenodd;
      }
    </style>
  </defs>
  <rect id="矩形_4" data-name="矩形 4" class="cls-1" width="48" height="48"/>
  <path id="形状_525" data-name="形状 525" class="cls-2" d="M5047,870.171l8-8,7,7,13-13,4,4V847h-32v23.171Zm0,5.657V879h19.17L5055,867.828ZM5071.83,879H5079V865.828l-4-4L5064.83,872ZM5047,843h32a4,4,0,0,1,4,4v32a4,4,0,0,1-4,4h-32a4,4,0,0,1-4-4V847A4,4,0,0,1,5047,843Zm14,6a6,6,0,1,1-6,6A6,6,0,0,1,5061,849Zm0,4a2,2,0,1,0,2,2A2,2,0,0,0,5061,853Z" transform="translate(-5039 -839)"/>
</svg>
