<svg id="pickup" xmlns="http://www.w3.org/2000/svg" width="48" height="48" viewBox="0 0 48 48">
  <metadata><?xpacket begin="﻿" id="W5M0MpCehiHzreSzNTczkc9d"?>
<x:xmpmeta xmlns:x="adobe:ns:meta/" x:xmptk="Adobe XMP Core 5.6-c142 79.160924, 2017/07/13-01:06:39        ">
   <rdf:RDF xmlns:rdf="http://www.w3.org/1999/02/22-rdf-syntax-ns#">
      <rdf:Description rdf:about=""/>
   </rdf:RDF>
</x:xmpmeta>
                                                                                                    
                                                                                                    
                                                                                                    
                                                                                                    
                                                                                                    
                                                                                                    
                                                                                                    
                                                                                                    
                                                                                                    
                                                                                                    
                                                                                                    
                                                                                                    
                                                                                                    
                                                                                                    
                                                                                                    
                                                                                                    
                                                                                                    
                                                                                                    
                                                                                                    
                                                                                                    
                           
<?xpacket end="w"?></metadata>
<defs>
    <style>
      .cls-1 {
        fill: #ededf5;
        opacity: 0;
      }

      .cls-2 {
        fill: #fff;
        fill-rule: evenodd;
      }
    </style>
  </defs>
  <rect id="矩形_1" data-name="矩形 1" class="cls-1" width="48" height="48"/>
  <path id="形状_538_拷贝" data-name="形状 538 拷贝" class="cls-2" d="M5748.24,1008.07H5754a3.988,3.988,0,0,1,4,3.98v3.97a3.989,3.989,0,0,1-2.5,3.69c0,0.09.01,0.19,0.01,0.28a4.3,4.3,0,0,1-.1.87l-3.11,13.91a3.992,3.992,0,0,1-3.9,3.11h-20.8a3.992,3.992,0,0,1-3.9-3.11l-3.11-13.91a4.122,4.122,0,0,1-.09-1.15,3.989,3.989,0,0,1-2.5-3.69v-3.97a3.988,3.988,0,0,1,4-3.98h5.76l4.45-8.837a2.006,2.006,0,0,1,2.68-.888,1.984,1.984,0,0,1,.9,2.665l-3.55,7.06h11.52l-3.55-7.06a1.984,1.984,0,0,1,.9-2.665,2.006,2.006,0,0,1,2.68.888Zm1.76,3.98a2,2,0,0,1-3.79.88l-0.45-.88h-15.52l-0.45.88a2,2,0,0,1-3.79-.88h-4v3.97h32v-3.97h-4Zm-25.51,7.94,3.11,13.91h20.8l3.11-13.91h-27.02Z" transform="translate(-5714 -994)"/>
</svg>
