<svg id="process" xmlns="http://www.w3.org/2000/svg" width="48" height="48" viewBox="0 0 48 48">
  <metadata><?xpacket begin="﻿" id="W5M0MpCehiHzreSzNTczkc9d"?>
<x:xmpmeta xmlns:x="adobe:ns:meta/" x:xmptk="Adobe XMP Core 5.6-c142 79.160924, 2017/07/13-01:06:39        ">
   <rdf:RDF xmlns:rdf="http://www.w3.org/1999/02/22-rdf-syntax-ns#">
      <rdf:Description rdf:about=""/>
   </rdf:RDF>
</x:xmpmeta>
                                                                                                    
                                                                                                    
                                                                                                    
                                                                                                    
                                                                                                    
                                                                                                    
                                                                                                    
                                                                                                    
                                                                                                    
                                                                                                    
                                                                                                    
                                                                                                    
                                                                                                    
                                                                                                    
                                                                                                    
                                                                                                    
                                                                                                    
                                                                                                    
                                                                                                    
                                                                                                    
                           
<?xpacket end="w"?></metadata>
<defs>
    <style>
      .cls-1 {
        fill: #ffb24d;
        opacity: 0;
      }

      .cls-2 {
        fill: #fff;
        fill-rule: evenodd;
      }
    </style>
  </defs>
  <rect id="矩形_3" data-name="矩形 3" class="cls-1" width="48" height="48"/>
  <path id="形状_530" data-name="形状 530" class="cls-2" d="M4551.66,1190.23a6.075,6.075,0,1,1,0-4.05H4569a5.065,5.065,0,0,0,0-10.13h-22a9.116,9.116,0,0,1,0-18.23h6.17l-2.58-2.62,2.82-2.86,7.42,7.51-7.42,7.51-2.82-2.87,2.58-2.62H4547a5.065,5.065,0,0,0,0,10.13h22a9.116,9.116,0,0,1,0,18.23h-17.34Zm-5.66-4.05a2.025,2.025,0,1,0,2,2.03A2.019,2.019,0,0,0,4546,1186.18Zm24-32.41a6.075,6.075,0,1,1-6,6.08A6.041,6.041,0,0,1,4570,1153.77Zm0,4.05a2.025,2.025,0,1,0,2,2.03A2.019,2.019,0,0,0,4570,1157.82Z" transform="translate(-4534 -1149)"/>
</svg>
