<?xml version="1.0" encoding="utf-8"?>
<!-- Generator: Adobe Illustrator 22.1.0, SVG Export Plug-In . SVG Version: 6.00 Build 0)  -->
<svg  fill="#ffffff" version="1.1" id="图层_1" xmlns="http://www.w3.org/2000/svg" xmlns:xlink="http://www.w3.org/1999/xlink" x="0px" y="0px"
	 viewBox="0 0 24 24" style="enable-background:new 0 0 24 24;" xml:space="preserve">
<path d="M16.9,20.7C15.4,21.6,13.7,22,12,22C6.5,22,2,17.5,2,12S6.5,2,12,2s10,4.5,10,10c0,1.7-0.4,3.4-1.3,4.9l0.4,4.2L16.9,20.7z
	 M16.4,18.7l2.5,0.2l-0.2-2.5l0.2-0.3c0.7-1.2,1.1-2.6,1.1-4.1c0-4.4-3.6-8-8-8s-8,3.6-8,8s3.6,8,8,8c1.5,0,2.9-0.4,4.1-1.1
	L16.4,18.7z M12,17c-0.6,0-1-0.4-1-1c0-0.6,0.4-1,1-1c0.6,0,1,0.4,1,1C13,16.6,12.6,17,12,17z M13,14h-2v-1c0-0.7,0.4-1.3,1-1.8
	c0.2-0.1,0.2-0.2,0.6-0.4c0.3-0.2,0.5-0.5,0.5-0.8c0-0.6-0.4-1-1-1s-1,0.4-1,1H9c0-1.7,1.3-3,3-3s3,1.3,3,3c0,1-0.5,2-1.4,2.5
	c-0.3,0.2-0.3,0.2-0.4,0.3C13.1,12.9,13,13,13,13V14z"/>
</svg>
