<svg id="record" xmlns="http://www.w3.org/2000/svg" width="48" height="48" viewBox="0 0 48 48">
  <metadata><?xpacket begin="﻿" id="W5M0MpCehiHzreSzNTczkc9d"?>
<x:xmpmeta xmlns:x="adobe:ns:meta/" x:xmptk="Adobe XMP Core 5.6-c142 79.160924, 2017/07/13-01:06:39        ">
   <rdf:RDF xmlns:rdf="http://www.w3.org/1999/02/22-rdf-syntax-ns#">
      <rdf:Description rdf:about=""/>
   </rdf:RDF>
</x:xmpmeta>
                                                                                                    
                                                                                                    
                                                                                                    
                                                                                                    
                                                                                                    
                                                                                                    
                                                                                                    
                                                                                                    
                                                                                                    
                                                                                                    
                                                                                                    
                                                                                                    
                                                                                                    
                                                                                                    
                                                                                                    
                                                                                                    
                                                                                                    
                                                                                                    
                                                                                                    
                                                                                                    
                           
<?xpacket end="w"?></metadata>
<defs>
    <style>
      .cls-1 {
        fill: #ffb24d;
        opacity: 0;
      }

      .cls-2 {
        fill: #fff;
        fill-rule: evenodd;
      }
    </style>
  </defs>
  <rect id="矩形_3" data-name="矩形 3" class="cls-1" width="48" height="48"/>
  <path id="形状_524" data-name="形状 524" class="cls-2" d="M4560,878.876V881h6v4h-16v-4h6v-2.124A16,16,0,0,1,4542,863v-4h4v4a12,12,0,0,0,24,0v-4h4v4A16,16,0,0,1,4560,878.876ZM4558,841a8,8,0,0,1,8,8v14a8,8,0,0,1-16,0V849A8,8,0,0,1,4558,841Zm0,4a4,4,0,0,0-4,4v14a4,4,0,0,0,8,0V849A4,4,0,0,0,4558,845Z" transform="translate(-4534 -839)"/>
</svg>
