<svg id="task" xmlns="http://www.w3.org/2000/svg" width="48" height="48" viewBox="0 0 48 48">
  <metadata><?xpacket begin="﻿" id="W5M0MpCehiHzreSzNTczkc9d"?>
<x:xmpmeta xmlns:x="adobe:ns:meta/" x:xmptk="Adobe XMP Core 5.6-c142 79.160924, 2017/07/13-01:06:39        ">
   <rdf:RDF xmlns:rdf="http://www.w3.org/1999/02/22-rdf-syntax-ns#">
      <rdf:Description rdf:about=""/>
   </rdf:RDF>
</x:xmpmeta>
                                                                                                    
                                                                                                    
                                                                                                    
                                                                                                    
                                                                                                    
                                                                                                    
                                                                                                    
                                                                                                    
                                                                                                    
                                                                                                    
                                                                                                    
                                                                                                    
                                                                                                    
                                                                                                    
                                                                                                    
                                                                                                    
                                                                                                    
                                                                                                    
                                                                                                    
                                                                                                    
                           
<?xpacket end="w"?></metadata>
<defs>
    <style>
      .cls-1, .cls-2 {
        fill: #fff;
      }

      .cls-1 {
        opacity: 0;
      }

      .cls-2 {
        fill-rule: evenodd;
      }
    </style>
  </defs>
  <rect id="矩形_2" data-name="矩形 2" class="cls-1" width="48" height="48"/>
  <path id="形状_527" data-name="形状 527" class="cls-2" d="M5079.34,1013.94l2.77,1.49a2.706,2.706,0,0,1,0,4.95l-2.77,1.49,2.77,1.5a2.7,2.7,0,0,1,0,4.94l-16.44,8.87a5.316,5.316,0,0,1-4.73,0l-16.44-8.87a2.7,2.7,0,0,1,0-4.94l2.77-1.5-2.77-1.49a2.706,2.706,0,0,1,0-4.95l2.77-1.49-2.77-1.49a2.706,2.706,0,0,1,0-4.95l16.44-8.869a5.31,5.31,0,0,1,4.73,0l16.44,8.869a2.706,2.706,0,0,1,0,4.95Zm-4.21,2.27-9.46,5.11a5.316,5.316,0,0,1-4.73,0l-9.46-5.11-3.15,1.7,14.6,7.87a1.2,1.2,0,0,0,.75,0l14.6-7.87Zm0,7.93-9.46,5.11a5.316,5.316,0,0,1-4.73,0l-9.46-5.11-3.15,1.7,14.6,7.88a1.366,1.366,0,0,0,.75,0l14.6-7.88Zm-11.45-22.04a1.2,1.2,0,0,0-.75,0l-14.6,7.87,14.6,7.88a1.2,1.2,0,0,0,.75,0l14.6-7.88Z" transform="translate(-5039 -994)"/>
</svg>
