<svg id="to-do" xmlns="http://www.w3.org/2000/svg" width="48" height="48" viewBox="0 0 48 48">
  <metadata><?xpacket begin="﻿" id="W5M0MpCehiHzreSzNTczkc9d"?>
<x:xmpmeta xmlns:x="adobe:ns:meta/" x:xmptk="Adobe XMP Core 5.6-c142 79.160924, 2017/07/13-01:06:39        ">
   <rdf:RDF xmlns:rdf="http://www.w3.org/1999/02/22-rdf-syntax-ns#">
      <rdf:Description rdf:about=""/>
   </rdf:RDF>
</x:xmpmeta>
                                                                                                    
                                                                                                    
                                                                                                    
                                                                                                    
                                                                                                    
                                                                                                    
                                                                                                    
                                                                                                    
                                                                                                    
                                                                                                    
                                                                                                    
                                                                                                    
                                                                                                    
                                                                                                    
                                                                                                    
                                                                                                    
                                                                                                    
                                                                                                    
                                                                                                    
                                                                                                    
                           
<?xpacket end="w"?></metadata>
<defs>
    <style>
      .cls-1, .cls-2 {
        fill: #fff;
      }

      .cls-1 {
        opacity: 0;
      }

      .cls-2 {
        fill-rule: evenodd;
      }
    </style>
  </defs>
  <rect id="矩形_2" data-name="矩形 2" class="cls-1" width="48" height="48"/>
  <path id="形状_713" data-name="形状 713" class="cls-2" d="M5056.42,710h-9.91a3.985,3.985,0,0,0-3.96,4v10a3.985,3.985,0,0,0,3.96,4h9.91a3.978,3.978,0,0,0,3.96-4V714A3.978,3.978,0,0,0,5056.42,710Zm0,14h-9.91V714h9.91v10Zm0-36h-9.91a3.985,3.985,0,0,0-3.96,4v10a3.985,3.985,0,0,0,3.96,4h9.91a3.978,3.978,0,0,0,3.96-4V692A3.978,3.978,0,0,0,5056.42,688Zm0,14h-9.91V692h9.91v10Zm21.8-14h-9.91a3.978,3.978,0,0,0-3.96,4v10a3.978,3.978,0,0,0,3.96,4h9.91a3.985,3.985,0,0,0,3.96-4V692A3.985,3.985,0,0,0,5078.22,688Zm0,14h-9.91V692h9.91v10Zm-6.94,18.464,8.51-8.585,2.8,2.828-11.31,11.414-7.34-7.414,2.8-2.828Z" transform="translate(-5039 -684)"/>
</svg>
