<svg id="图层_1" data-name="图层 1" xmlns="http://www.w3.org/2000/svg" xmlns:xlink="http://www.w3.org/1999/xlink" viewBox="0 0 788 375"><defs><style>.cls-1{fill:url(#未命名的渐变_5);}.cls-2{fill:url(#未命名的渐变_5-2);}.cls-3{fill:url(#未命名的渐变_5-3);}.cls-4{fill:url(#未命名的渐变_5-4);}.cls-5{fill:url(#未命名的渐变_5-5);}.cls-6{fill:url(#未命名的渐变_44);}.cls-7{fill:url(#未命名的渐变_26);}.cls-8{fill:url(#未命名的渐变_30);}.cls-9{fill:#fff;}.cls-10{fill:url(#未命名的渐变_34);}.cls-11{fill:#e3f4fe;}.cls-12{fill:#badef9;}.cls-13{fill:#6eb1f9;}.cls-14{fill:url(#未命名的渐变_34-2);}</style><linearGradient id="未命名的渐变_5" x1="66" y1="82.75" x2="66" y2="184.75" gradientUnits="userSpaceOnUse"><stop offset="0" stop-color="#e1f0ff"/><stop offset="0.06" stop-color="#e1f0ff" stop-opacity="0.86"/><stop offset="0.16" stop-color="#e1f0ff" stop-opacity="0.66"/><stop offset="0.26" stop-color="#e1f0ff" stop-opacity="0.49"/><stop offset="0.37" stop-color="#e1f0ff" stop-opacity="0.34"/><stop offset="0.48" stop-color="#e1f0ff" stop-opacity="0.21"/><stop offset="0.59" stop-color="#e1f0ff" stop-opacity="0.12"/><stop offset="0.71" stop-color="#e1f0ff" stop-opacity="0.05"/><stop offset="0.84" stop-color="#e1f0ff" stop-opacity="0.01"/><stop offset="1" stop-color="#e1f0ff" stop-opacity="0"/></linearGradient><linearGradient id="未命名的渐变_5-2" x1="699.71" y1="0.75" x2="699.71" y2="132.75" xlink:href="#未命名的渐变_5"/><linearGradient id="未命名的渐变_5-3" x1="204" y1="148.75" x2="204" y2="210.75" xlink:href="#未命名的渐变_5"/><linearGradient id="未命名的渐变_5-4" x1="534" y1="146.75" x2="534" y2="208.75" xlink:href="#未命名的渐变_5"/><linearGradient id="未命名的渐变_5-5" x1="588" y1="135.42" x2="588" y2="257.42" xlink:href="#未命名的渐变_5"/><linearGradient id="未命名的渐变_44" x1="383" y1="163.75" x2="383" y2="373.75" gradientUnits="userSpaceOnUse"><stop offset="0" stop-color="#c7e0ff"/><stop offset="0.06" stop-color="#cbe2ff" stop-opacity="0.86"/><stop offset="0.16" stop-color="#d0e5ff" stop-opacity="0.66"/><stop offset="0.26" stop-color="#d4e8ff" stop-opacity="0.48"/><stop offset="0.37" stop-color="#d8ebff" stop-opacity="0.33"/><stop offset="0.48" stop-color="#dbedff" stop-opacity="0.21"/><stop offset="0.59" stop-color="#deeeff" stop-opacity="0.12"/><stop offset="0.71" stop-color="#e0efff" stop-opacity="0.05"/><stop offset="0.84" stop-color="#e1f0ff" stop-opacity="0.01"/><stop offset="1" stop-color="#e1f0ff" stop-opacity="0"/></linearGradient><linearGradient id="未命名的渐变_26" x1="503.07" y1="115.36" x2="319.16" y2="115.36" gradientUnits="userSpaceOnUse"><stop offset="0" stop-color="#cde5fb"/><stop offset="0.18" stop-color="#c4e0fb"/><stop offset="0.47" stop-color="#aad2fa"/><stop offset="0.84" stop-color="#81bbf9"/><stop offset="0.99" stop-color="#6eb1f9"/></linearGradient><linearGradient id="未命名的渐变_30" x1="381.86" y1="129.99" x2="260.64" y2="129.99" gradientUnits="userSpaceOnUse"><stop offset="0" stop-color="#cce3fe"/><stop offset="0.3" stop-color="#c3defd"/><stop offset="0.79" stop-color="#a9d1fa"/><stop offset="0.99" stop-color="#9dcaf8"/></linearGradient><linearGradient id="未命名的渐变_34" x1="467.34" y1="147.2" x2="499.25" y2="147.2" gradientUnits="userSpaceOnUse"><stop offset="0" stop-color="#95c5f6"/><stop offset="0.59" stop-color="#9ecbfa"/><stop offset="0.99" stop-color="#a8d2fe"/></linearGradient><linearGradient id="未命名的渐变_34-2" x1="429.87" y1="192" x2="490.98" y2="192" gradientTransform="translate(270.62 -269.33) rotate(45)" xlink:href="#未命名的渐变_34"/></defs><title>sketch_signup</title><path class="cls-1" d="M82,82.75a51,51,0,0,0-41.78,21.76,31,31,0,1,0,0,58.48A51,51,0,1,0,82,82.75Z"/><path class="cls-2" d="M720.41.75a65.91,65.91,0,0,0-54.06,28.16,40.12,40.12,0,1,0,0,75.68A66,66,0,1,0,720.41.75Z"/><rect class="cls-3" x="189" y="148.75" width="30" height="62"/><rect class="cls-4" x="519" y="146.75" width="30" height="62"/><rect class="cls-5" x="573" y="135.42" width="30" height="122"/><path class="cls-6" d="M383,163.75c-187.78,0-340,94-340,210H723C723,257.77,570.78,163.75,383,163.75Z"/><path class="cls-7" d="M484.54,183.42l-39.93-20a15.22,15.22,0,0,1-8.41-13.62V134.17a60.55,60.55,0,0,0,3.77-4.86,91.45,91.45,0,0,0,12.41-25,12.54,12.54,0,0,0,8.9-11.93V75.65a12.49,12.49,0,0,0-4.18-9.27V42.21s5-37.62-46-37.62-46,37.62-46,37.62V66.38A12.46,12.46,0,0,0,361,75.65V92.37a12.53,12.53,0,0,0,5.78,10.52,82.83,82.83,0,0,0,15.12,31.28v15.27a15.23,15.23,0,0,1-7.94,13.37l-37.29,20.34a33.54,33.54,0,0,0-17.47,29.44v13.54H503.07V213.41A33.52,33.52,0,0,0,484.54,183.42Z"/><path class="cls-8" d="M336.63,183.15l24.85-13.55c-.14-.14,0-.18.28-.15l12.16-6.63a15.26,15.26,0,0,0,7.94-13.38V134.17a79.71,79.71,0,0,1-8.75-13.89h0v0c-.57-1.12-1.12-2.3-1.67-3.52-.07-.18-.15-.34-.22-.51-.56-1.27-1.1-2.57-1.62-4,0-.08-.06-.18-.09-.27-.46-1.21-.88-2.46-1.28-3.74l-.33-1c-.42-1.41-.81-2.85-1.16-4.34A12.5,12.5,0,0,1,361,92.37V75.65a12.46,12.46,0,0,1,4.18-9.27V42.78c-5.91-4.59-15.06-8.93-29.26-8.93-40,0-41.8,33.44-41.8,33.44V88.17c-2.2,2-4.18,4.82-4.18,8v14.44a10.84,10.84,0,0,0,5,9.09c3.61,15.7,15.72,27,15.72,27v13.2a13.14,13.14,0,0,1-6.86,11.54l-28,17.56a29,29,0,0,0-15.09,25.42v11.69h58.52V212.59A33.54,33.54,0,0,1,336.63,183.15Z"/><polygon class="cls-9" points="418.79 198.91 418.76 198.94 410.45 229.41 429.87 209.99 418.79 198.91"/><path class="cls-10" d="M499.25,140.6,494,135.39a8.29,8.29,0,0,0-11.73,0l-15,15,11.07,11.08Z"/><rect class="cls-11" x="414.28" y="172.34" width="68.65" height="15.67" transform="translate(3.99 369.98) rotate(-45)"/><polygon class="cls-12" points="442.4 222.58 442.44 222.56 429.87 209.99 410.45 229.41 409.89 231.45 442.4 222.58"/><path class="cls-13" d="M491,174l15-15a8.3,8.3,0,0,0,0-11.74l-6.69-6.69-20.85,20.83Z"/><rect class="cls-14" x="426.1" y="183.12" width="68.65" height="17.77" transform="translate(-0.91 381.8) rotate(-45)"/><path class="cls-13" d="M406.94,238.59a4.19,4.19,0,0,1-3-7.14l9.23-9.22a4.18,4.18,0,0,1,5.91,5.91l-9.23,9.22A4.13,4.13,0,0,1,406.94,238.59Z"/></svg>