<svg id="bom" xmlns="http://www.w3.org/2000/svg" width="48" height="48" viewBox="0 0 48 48">
  <metadata><?xpacket begin="﻿" id="W5M0MpCehiHzreSzNTczkc9d"?>
<x:xmpmeta xmlns:x="adobe:ns:meta/" x:xmptk="Adobe XMP Core 5.6-c142 79.160924, 2017/07/13-01:06:39        ">
   <rdf:RDF xmlns:rdf="http://www.w3.org/1999/02/22-rdf-syntax-ns#">
      <rdf:Description rdf:about=""/>
   </rdf:RDF>
</x:xmpmeta>
                                                                                                    
                                                                                                    
                                                                                                    
                                                                                                    
                                                                                                    
                                                                                                    
                                                                                                    
                                                                                                    
                                                                                                    
                                                                                                    
                                                                                                    
                                                                                                    
                                                                                                    
                                                                                                    
                                                                                                    
                                                                                                    
                                                                                                    
                                                                                                    
                                                                                                    
                                                                                                    
                           
<?xpacket end="w"?></metadata>
<defs>
    <style>
      .cls-1 {
        fill: #ffb24d;
        opacity: 0;
      }

      .cls-2 {
        fill: #fff;
        fill-rule: evenodd;
      }
    </style>
  </defs>
  <rect id="矩形_4" data-name="矩形 4" class="cls-1" width="48" height="48"/>
  <path id="形状_518" data-name="形状 518" class="cls-2" d="M3877,866.5h24v-6h-24v6Zm-4,0v-6h-8v6h8Zm4-16v6h24v-6h-24Zm-4,0h-8v6h8v-6Zm4,26h24v-6h-24v6Zm-4,0v-6h-8v6h8Zm-8-30h36a4,4,0,0,1,4,4v26a4,4,0,0,1-4,4h-36a4,4,0,0,1-4-4v-26A4,4,0,0,1,3865,846.5Z" transform="translate(-3859 -839)"/>
</svg>
