<svg id="customer" xmlns="http://www.w3.org/2000/svg" width="48" height="48" viewBox="0 0 48 48">
  <metadata><?xpacket begin="﻿" id="W5M0MpCehiHzreSzNTczkc9d"?>
<x:xmpmeta xmlns:x="adobe:ns:meta/" x:xmptk="Adobe XMP Core 5.6-c142 79.160924, 2017/07/13-01:06:39        ">
   <rdf:RDF xmlns:rdf="http://www.w3.org/1999/02/22-rdf-syntax-ns#">
      <rdf:Description rdf:about=""/>
   </rdf:RDF>
</x:xmpmeta>
                                                                                                    
                                                                                                    
                                                                                                    
                                                                                                    
                                                                                                    
                                                                                                    
                                                                                                    
                                                                                                    
                                                                                                    
                                                                                                    
                                                                                                    
                                                                                                    
                                                                                                    
                                                                                                    
                                                                                                    
                                                                                                    
                                                                                                    
                                                                                                    
                                                                                                    
                                                                                                    
                           
<?xpacket end="w"?></metadata>
<defs>
    <style>
      .cls-1 {
        fill: #ededf5;
        opacity: 0;
      }

      .cls-2 {
        fill: #fff;
        fill-rule: evenodd;
      }
    </style>
  </defs>
  <rect id="矩形_1" data-name="矩形 1" class="cls-1" width="48" height="48"/>
  <path id="形状_716" data-name="形状 716" class="cls-2" d="M3367,720.871h-4v3.961h4v-3.961Zm6,0h-4v3.961h4v-3.961Zm-6-5.942h-4v3.961h4v-3.961Zm6,0h-4v3.961h4v-3.961Zm-6-5.942h-4v3.961h4v-3.961Zm6,0h-4v3.961h4v-3.961Zm14,11.884h-4v3.961h4v-3.961Zm6,0h-4v3.961h4v-3.961Zm-6-5.942h-4v3.961h4v-3.961Zm6,0h-4v3.961h4v-3.961Zm-6-5.942h-4v3.961h4v-3.961Zm6,0h-4v3.961h4v-3.961Zm-6-5.942h-4v3.961h4v-3.961Zm6,0h-4v3.961h4v-3.961Zm6.23-3.158-20.28-13.39a1.719,1.719,0,0,0-2.67,1.416v5.781l-19.51,12.887A1.7,1.7,0,0,0,3356,708v20.084a1.711,1.711,0,0,0,1.72,1.7h40.56a1.711,1.711,0,0,0,1.72-1.7V701.3A1.7,1.7,0,0,0,3399.23,699.887Zm-22.95,26.493h-16.84V708.908l16.84-11.123v28.6Zm20.28,0h-16.84V691.094c1.27,0.837,16.06,10.6,16.84,11.12V726.38Z" transform="translate(-3354 -684)"/>
</svg>
