<svg id="delivery" xmlns="http://www.w3.org/2000/svg" width="48" height="48" viewBox="0 0 48 48">
  <metadata><?xpacket begin="﻿" id="W5M0MpCehiHzreSzNTczkc9d"?>
<x:xmpmeta xmlns:x="adobe:ns:meta/" x:xmptk="Adobe XMP Core 5.6-c142 79.160924, 2017/07/13-01:06:39        ">
   <rdf:RDF xmlns:rdf="http://www.w3.org/1999/02/22-rdf-syntax-ns#">
      <rdf:Description rdf:about=""/>
   </rdf:RDF>
</x:xmpmeta>
                                                                                                    
                                                                                                    
                                                                                                    
                                                                                                    
                                                                                                    
                                                                                                    
                                                                                                    
                                                                                                    
                                                                                                    
                                                                                                    
                                                                                                    
                                                                                                    
                                                                                                    
                                                                                                    
                                                                                                    
                                                                                                    
                                                                                                    
                                                                                                    
                                                                                                    
                                                                                                    
                           
<?xpacket end="w"?></metadata>
<defs>
    <style>
      .cls-1 {
        fill: #ffb24d;
        opacity: 0;
      }

      .cls-2 {
        fill: #fff;
        fill-rule: evenodd;
      }
    </style>
  </defs>
  <rect id="矩形_3" data-name="矩形 3" class="cls-1" width="48" height="48"/>
  <path id="形状_716" data-name="形状 716" class="cls-2" d="M5753.66,1180.5H5756v-6.93l-5.55-3.7-3.69-7.37H5720v18h2.34a6,6,0,0,1,11.32,0h8.68A6,6,0,0,1,5753.66,1180.5Zm0,4a6,6,0,0,1-11.32,0h-8.68a6,6,0,0,1-11.32,0H5720a4,4,0,0,1-4-4v-18a4,4,0,0,1,4-4h26.76a4.009,4.009,0,0,1,3.58,2.21l3.21,6.42,6.45,4.3v9.07a4,4,0,0,1-4,4h-2.34Zm-25.66,0a2,2,0,1,0-2-2A2.006,2.006,0,0,0,5728,1184.5Zm20,0a2,2,0,1,0-2-2A2.006,2.006,0,0,0,5748,1184.5Z" transform="translate(-5714 -1149)"/>
</svg>
