<?xml version="1.0" encoding="utf-8"?>
<!-- Generator: Adobe Illustrator 22.1.0, SVG Export Plug-In . SVG Version: 6.00 Build 0)  -->
<svg  fill="#ffffff"   version="1.1" id="图层_1" xmlns="http://www.w3.org/2000/svg" xmlns:xlink="http://www.w3.org/1999/xlink" x="0px" y="0px"
	 viewBox="0 0 24 24" style="enable-background:new 0 0 24 24;" xml:space="preserve">
<path d="M7,10V7c0-2.8,2.2-5,5-5s5,2.2,5,5v3h1c1.1,0,2,0.8,2,1.8v8.3c0,1.1-0.9,1.8-2,1.8H6c-1.1,0-2-0.8-2-1.8v-8.3
	C4,10.8,4.9,10,6,10H7z M9,10h6V7c0-1.7-1.3-3-3-3S9,5.3,9,7V10z M6,12v8h12v-8H6z M12,17c-0.6,0-1-0.4-1-1s0.4-1,1-1s1,0.4,1,1
	S12.6,17,12,17z"/>
</svg>
