<svg id="notice" xmlns="http://www.w3.org/2000/svg" width="48" height="48" viewBox="0 0 48 48">
  <metadata><?xpacket begin="﻿" id="W5M0MpCehiHzreSzNTczkc9d"?>
<x:xmpmeta xmlns:x="adobe:ns:meta/" x:xmptk="Adobe XMP Core 5.6-c142 79.160924, 2017/07/13-01:06:39        ">
   <rdf:RDF xmlns:rdf="http://www.w3.org/1999/02/22-rdf-syntax-ns#">
      <rdf:Description rdf:about=""/>
   </rdf:RDF>
</x:xmpmeta>
                                                                                                    
                                                                                                    
                                                                                                    
                                                                                                    
                                                                                                    
                                                                                                    
                                                                                                    
                                                                                                    
                                                                                                    
                                                                                                    
                                                                                                    
                                                                                                    
                                                                                                    
                                                                                                    
                                                                                                    
                                                                                                    
                                                                                                    
                                                                                                    
                                                                                                    
                                                                                                    
                           
<?xpacket end="w"?></metadata>
<defs>
    <style>
      .cls-1 {
        fill: #ffb24d;
        opacity: 0;
      }

      .cls-2 {
        fill: #fff;
        fill-rule: evenodd;
      }
    </style>
  </defs>
  <rect id="矩形_3" data-name="矩形 3" class="cls-1" width="48" height="48"/>
  <path id="形状_520" data-name="形状 520" class="cls-2" d="M3374.27,1308.54a3.914,3.914,0,0,1,.99-1.45,4.057,4.057,0,0,1,5.48,0,4,4,0,0,1,.99,1.45c5.79,1.66,10.27,7.21,10.27,15.2,0,5.17,1.06,8.07,3.03,10.19,0.49,0.52,2.2,2.04,2.39,2.23l0.58,0.58v6.71h-12.25a7.779,7.779,0,0,1-3.57,4.74,8.141,8.141,0,0,1-8.36,0,6.817,6.817,0,0,1-3.64-4.74H3358v-6.71l0.58-.58c0.2-.2,1.91-1.71,2.39-2.23,1.97-2.1,3.03-5.01,3.03-10.19C3364,1315.73,3368.47,1310.19,3374.27,1308.54Zm0.09,34.91a3.826,3.826,0,0,0,1.55,1.38,4.071,4.071,0,0,0,4.18,0,3.88,3.88,0,0,0,1.38-1.38h-7.11Zm19.64-5.04c-0.6-.54-1.5-1.37-1.92-1.82-2.67-2.87-4.08-6.73-4.08-12.85,0-7.42-4.68-11.79-10-11.79s-10,4.35-10,11.79c0,6.14-1.41,10-4.08,12.86-0.42.45-1.33,1.27-1.92,1.81v1.1h32v-1.1Z" transform="translate(-3354 -1304)"/>
</svg>
