<?xml version="1.0" encoding="utf-8"?>
<!-- Generator: Adobe Illustrator 22.1.0, SVG Export Plug-In . SVG Version: 6.00 Build 0)  -->
<svg  fill="#ffffff" version="1.1" id="图层_1" xmlns="http://www.w3.org/2000/svg" xmlns:xlink="http://www.w3.org/1999/xlink" x="0px" y="0px"
	 viewBox="0 0 24 24" style="enable-background:new 0 0 24 24;" xml:space="preserve">
<g>
	<path d="M22.7,21.3l-20-20L1.3,2.7l5.9,5.9L2,13h5v7c0,1.1,0.9,2,2,2h6c1.1,0,2-0.9,2-2v-1.6l4.3,4.3L22.7,21.3z M15,20H9v-7v-2
		H7.7l1-0.9l6.3,6.3V20z"/>
	<polygon points="17.2,13 22,13 12,4.4 10.2,6 11.6,7.4 12,7 16.3,11 15.2,11 	"/>
	<path d="M21,4c0-1.1-0.9-2-2-2H6.2l2,2H21z"/>
</g>
</svg>
