<svg id="pricing" xmlns="http://www.w3.org/2000/svg" width="48" height="48" viewBox="0 0 48 48">
  <metadata><?xpacket begin="﻿" id="W5M0MpCehiHzreSzNTczkc9d"?>
<x:xmpmeta xmlns:x="adobe:ns:meta/" x:xmptk="Adobe XMP Core 5.6-c142 79.160924, 2017/07/13-01:06:39        ">
   <rdf:RDF xmlns:rdf="http://www.w3.org/1999/02/22-rdf-syntax-ns#">
      <rdf:Description rdf:about=""/>
   </rdf:RDF>
</x:xmpmeta>
                                                                                                    
                                                                                                    
                                                                                                    
                                                                                                    
                                                                                                    
                                                                                                    
                                                                                                    
                                                                                                    
                                                                                                    
                                                                                                    
                                                                                                    
                                                                                                    
                                                                                                    
                                                                                                    
                                                                                                    
                                                                                                    
                                                                                                    
                                                                                                    
                                                                                                    
                                                                                                    
                           
<?xpacket end="w"?></metadata>
<defs>
    <style>
      .cls-1 {
        fill: #ffb24d;
        opacity: 0;
      }

      .cls-2 {
        fill: #fff;
        fill-rule: evenodd;
      }
    </style>
  </defs>
  <rect id="矩形_4" data-name="矩形 4" class="cls-1" width="48" height="48"/>
  <path id="形状_519_拷贝" data-name="形状 519 拷贝" class="cls-2" d="M3895,1156h2a4,4,0,0,1,4,4v30a4,4,0,0,1-4,4h-28a4,4,0,0,1-4-4v-30a4,4,0,0,1,4-4h2a4,4,0,0,1,4-4h1.99a10.03,10.03,0,0,1,12.02,0H3891A4,4,0,0,1,3895,1156Zm-23.46,4H3869v30h28v-30h-2.54a3.98,3.98,0,0,1-3.46,2h-16A3.98,3.98,0,0,1,3871.54,1160Zm9.46,17.17,8.59-8.58,2.82,2.82L3881,1182.83l-7.41-7.42,2.82-2.82Zm-1.69-21.86-0.59.69H3875v2h16v-2h-3.72l-0.59-.69A5.852,5.852,0,0,0,3879.31,1155.31Z" transform="translate(-3859 -1149)"/>
</svg>
