<?xml version="1.0" encoding="utf-8"?>
<!-- Generator: Adobe Illustrator 22.1.0, SVG Export Plug-In . SVG Version: 6.00 Build 0)  -->
<svg  fill="#FFFFFF" version="1.1" id="图层_1" xmlns="http://www.w3.org/2000/svg" xmlns:xlink="http://www.w3.org/1999/xlink" x="0px" y="0px"
	 viewBox="0 0 24 24" style="enable-background:new 0 0 24 24;" xml:space="preserve">
<path d="M12,13.6l2.3-2.3l1.4,1.4L13.4,15l2.3,2.3l-1.4,1.4L12,16.4l-2.3,2.3l-1.4-1.4l2.3-2.3l-2.3-2.3l1.4-1.4L12,13.6z M7,4V3
	c0-1.1,0.9-2,2-2h6c1.1,0,2,0.9,2,2v1h3c1.1,0,2,0.9,2,2v2c0,1.1-0.9,2-2,2h-0.1L19,21c0,1.1-0.9,2-2,2H7c-1.1,0-2-0.9-2-1.9L4.1,10
	H4c-1.1,0-2-0.9-2-2V6c0-1.1,0.9-2,2-2H7z M7,6H4v2h16V6h-3H7z M6.1,10L7,21h10l0-0.1L17.9,10H6.1z M15,4V3H9v1H15z"/>
</svg>
