<?xml version="1.0" encoding="utf-8"?>
<!-- Generator: Adobe Illustrator 22.1.0, SVG Export Plug-In . SVG Version: 6.00 Build 0)  -->
<svg fill="#ffffff" version="1.1" id="图层_1" xmlns="http://www.w3.org/2000/svg" xmlns:xlink="http://www.w3.org/1999/xlink" x="0px" y="0px"
	 viewBox="0 0 24 24" style="enable-background:new 0 0 24 24;" xml:space="preserve">
<path d="M7,11V6c0-2.8,2.2-5,5-5s5,2.2,5,5v2h-2V6c0-1.7-1.3-3-3-3S9,4.3,9,6v5h9c1.1,0,2,0.9,2,2v8c0,1.1-0.9,2-2,2H6
	c-1.1,0-2-0.9-2-2v-8c0-1.1,0.9-2,2-2H7z M6,13v8h12v-8H6z M12,18c-0.6,0-1-0.4-1-1s0.4-1,1-1s1,0.4,1,1S12.6,18,12,18z"/>
</svg>
