<svg xmlns="http://www.w3.org/2000/svg" width="69.969" height="70" viewBox="0 0 69.969 70">
  <metadata><?xpacket begin="﻿" id="W5M0MpCehiHzreSzNTczkc9d"?>
<x:xmpmeta xmlns:x="adobe:ns:meta/" x:xmptk="Adobe XMP Core 5.6-c142 79.160924, 2017/07/13-01:06:39        ">
   <rdf:RDF xmlns:rdf="http://www.w3.org/1999/02/22-rdf-syntax-ns#">
      <rdf:Description rdf:about=""/>
   </rdf:RDF>
</x:xmpmeta>
                                                                                                    
                                                                                                    
                                                                                                    
                                                                                                    
                                                                                                    
                                                                                                    
                                                                                                    
                                                                                                    
                                                                                                    
                                                                                                    
                                                                                                    
                                                                                                    
                                                                                                    
                                                                                                    
                                                                                                    
                                                                                                    
                                                                                                    
                                                                                                    
                                                                                                    
                                                                                                    
                           
<?xpacket end="w"?></metadata>
<defs>
    <style>
      .cls-1 {
        fill: #fff;
        fill-rule: evenodd;
      }
    </style>
  </defs>
  <path id="check" class="cls-1" d="M961.6,7556.6v-2.86a6.314,6.314,0,0,0-6.305-6.31H929.07a2.741,2.741,0,0,0-2.734,2.74,2.712,2.712,0,0,0,.606,1.71l0.555,0.51a0.231,0.231,0,0,1,.048.05,2.746,2.746,0,0,0,1.525.46h13.67a2.735,2.735,0,0,1,0,5.47H929.07a8.177,8.177,0,0,1-6.019-2.63l-15.78-14.43a0.424,0.424,0,0,1-.071-0.07,2.735,2.735,0,0,0-3.866.04,2.73,2.73,0,0,0,.012,3.84l13.912,12.89c0.015,0.01.029,0.03,0.044,0.04a33.494,33.494,0,0,0,23.425,9.49h23.611a2.73,2.73,0,1,1,0,5.46H940.727a39.146,39.146,0,0,1-27.206-11L899.6,7549.11l-0.057-.06a8.206,8.206,0,0,1,5.668-14.06h0.079a8.155,8.155,0,0,1,5.7,2.31l10.542,9.64a8.183,8.183,0,0,1,2.592-3.31,22.15,22.15,0,0,1,20.3-39.1,2.735,2.735,0,0,1-2,5.09,16.5,16.5,0,0,0-6.107-1.16,16.685,16.685,0,1,0,16.544,18.81,2.734,2.734,0,0,1,5.425.68,22.093,22.093,0,0,1-7.571,14.02H955.3a11.785,11.785,0,0,1,11.773,11.77v2.86A2.734,2.734,0,0,1,961.6,7556.6Zm-23.471-28.72a1.036,1.036,0,0,1-.793-0.29,0.109,0.109,0,0,1-.011-0.01l-7.752-7.3a2.737,2.737,0,0,0-3.747,3.99l7.746,7.29a6.541,6.541,0,0,0,4.491,1.79c0.143,0,.287,0,0.43-0.01a6.556,6.556,0,0,0,4.647-2.42c0.033-.05.065-0.09,0.1-0.13l11.843-16.65a2.734,2.734,0,1,0-4.455-3.17l-11.783,16.56A1.024,1.024,0,0,1,938.133,7527.88Z" transform="translate(-897.094 -7503)"/>
</svg>
