<svg id="contacts" xmlns="http://www.w3.org/2000/svg" width="48" height="48" viewBox="0 0 48 48">
  <metadata><?xpacket begin="﻿" id="W5M0MpCehiHzreSzNTczkc9d"?>
<x:xmpmeta xmlns:x="adobe:ns:meta/" x:xmptk="Adobe XMP Core 5.6-c142 79.160924, 2017/07/13-01:06:39        ">
   <rdf:RDF xmlns:rdf="http://www.w3.org/1999/02/22-rdf-syntax-ns#">
      <rdf:Description rdf:about=""/>
   </rdf:RDF>
</x:xmpmeta>
                                                                                                    
                                                                                                    
                                                                                                    
                                                                                                    
                                                                                                    
                                                                                                    
                                                                                                    
                                                                                                    
                                                                                                    
                                                                                                    
                                                                                                    
                                                                                                    
                                                                                                    
                                                                                                    
                                                                                                    
                                                                                                    
                                                                                                    
                                                                                                    
                                                                                                    
                                                                                                    
                           
<?xpacket end="w"?></metadata>
<defs>
    <style>
      .cls-1 {
        fill: #ffb24d;
        opacity: 0;
      }

      .cls-2 {
        fill: #fff;
        fill-rule: evenodd;
      }
    </style>
  </defs>
  <rect id="矩形_4" data-name="矩形 4" class="cls-1" width="48" height="48"/>
  <path id="形状_532" data-name="形状 532" class="cls-2" d="M5051.07,1496.48a18,18,0,0,0,23.86,0c-0.59-2.11-4.79-3.48-11.93-3.48S5051.66,1494.37,5051.07,1496.48Zm-2.87-3.23c2.25-2.97,7.54-4.25,14.8-4.25s12.55,1.28,14.8,4.25A18,18,0,1,0,5048.2,1493.25ZM5063,1505a22,22,0,1,1,22-22A22,22,0,0,1,5063,1505Zm-8-26a7.7,7.7,0,0,1,8-8c4.83,0,8,3.84,8,8.4,0,6.56-3.56,9.6-8,9.6C5058.52,1489,5055,1485.85,5055,1479Zm4,0c0,4.54,1.64,6,4,6s4-1.4,4-5.6c0-2.5-1.57-4.4-4-4.4A3.728,3.728,0,0,0,5059,1479Z" transform="translate(-5039 -1459)"/>
</svg>
