<svg id="no-alarm" xmlns="http://www.w3.org/2000/svg" width="48" height="48" viewBox="0 0 48 48">
  <metadata><?xpacket begin="﻿" id="W5M0MpCehiHzreSzNTczkc9d"?>
<x:xmpmeta xmlns:x="adobe:ns:meta/" x:xmptk="Adobe XMP Core 5.6-c142 79.160924, 2017/07/13-01:06:39        ">
   <rdf:RDF xmlns:rdf="http://www.w3.org/1999/02/22-rdf-syntax-ns#">
      <rdf:Description rdf:about=""/>
   </rdf:RDF>
</x:xmpmeta>
                                                                                                    
                                                                                                    
                                                                                                    
                                                                                                    
                                                                                                    
                                                                                                    
                                                                                                    
                                                                                                    
                                                                                                    
                                                                                                    
                                                                                                    
                                                                                                    
                                                                                                    
                                                                                                    
                                                                                                    
                                                                                                    
                                                                                                    
                                                                                                    
                                                                                                    
                                                                                                    
                           
<?xpacket end="w"?></metadata>
<defs>
    <style>
      .cls-1, .cls-2 {
        fill: #fff;
      }

      .cls-1 {
        opacity: 0;
      }

      .cls-2 {
        fill-rule: evenodd;
      }
    </style>
  </defs>
  <rect id="矩形_649_拷贝" data-name="矩形 649 拷贝" class="cls-1" width="48" height="48"/>
  <path id="形状_690" data-name="形状 690" class="cls-2" d="M5406.9,3152.87h-5.34a7.776,7.776,0,0,1-3.51,4.74,7.855,7.855,0,0,1-8.2,0,6.826,6.826,0,0,1-3.59-4.74H5374.3v-6.72l0.57-.57c0.2-.21,1.88-1.71,2.35-2.23,1.93-2.11,2.98-5.01,2.98-10.19a19.133,19.133,0,0,1,.95-6.1l-8.24-8.26,2.78-2.78,39.29,39.38-2.77,2.78Zm-3.93-3.94-18.6-18.64a16.254,16.254,0,0,0-.24,2.87c0,6.13-1.39,9.99-4.02,12.85-0.41.45-1.3,1.28-1.88,1.81v1.11h24.74Zm-12.6,3.94a4,4,0,0,0,1.52,1.38,3.945,3.945,0,0,0,4.11,0,3.9,3.9,0,0,0,1.36-1.38h-6.99Zm17.33-19.71v9.42l-3.33-3.34a27.311,27.311,0,0,1-.6-6.08c0-7.42-4.6-11.79-9.82-11.79a9.1,9.1,0,0,0-5.55,1.87l-2.79-2.8a13.072,13.072,0,0,1,4.68-2.49,3.825,3.825,0,0,1,.97-1.44,3.91,3.91,0,0,1,5.38,0,3.86,3.86,0,0,1,.97,1.45C5403.3,3119.62,5407.7,3125.17,5407.7,3133.16Z" transform="translate(-5370 -3113)"/>
</svg>
