<svg id="order" xmlns="http://www.w3.org/2000/svg" width="48" height="48" viewBox="0 0 48 48">
  <metadata><?xpacket begin="﻿" id="W5M0MpCehiHzreSzNTczkc9d"?>
<x:xmpmeta xmlns:x="adobe:ns:meta/" x:xmptk="Adobe XMP Core 5.6-c142 79.160924, 2017/07/13-01:06:39        ">
   <rdf:RDF xmlns:rdf="http://www.w3.org/1999/02/22-rdf-syntax-ns#">
      <rdf:Description rdf:about=""/>
   </rdf:RDF>
</x:xmpmeta>
                                                                                                    
                                                                                                    
                                                                                                    
                                                                                                    
                                                                                                    
                                                                                                    
                                                                                                    
                                                                                                    
                                                                                                    
                                                                                                    
                                                                                                    
                                                                                                    
                                                                                                    
                                                                                                    
                                                                                                    
                                                                                                    
                                                                                                    
                                                                                                    
                                                                                                    
                                                                                                    
                           
<?xpacket end="w"?></metadata>
<defs>
    <style>
      .cls-1 {
        fill: #ffb24d;
        opacity: 0;
      }

      .cls-2 {
        fill: #fff;
        fill-rule: evenodd;
      }
    </style>
  </defs>
  <rect id="矩形_3" data-name="矩形 3" class="cls-1" width="48" height="48"/>
  <path id="形状_517" data-name="形状 517" class="cls-2" d="M3390,845h2a4,4,0,0,1,4,4v30a4,4,0,0,1-4,4h-28a4,4,0,0,1-4-4V849a4,4,0,0,1,4-4h2a4,4,0,0,1,4-4h1.99a10.03,10.03,0,0,1,12.02,0H3386A4,4,0,0,1,3390,845Zm-23.47,4H3364v30h28V849h-2.54a3.99,3.99,0,0,1-3.46,2h-16A4.019,4.019,0,0,1,3366.53,849Zm3.47,20v-4h12v4h-12Zm0-8v-4h16v4h-16Zm4.31-16.689-0.59.689H3370v2h16v-2h-3.72l-0.59-.689A5.849,5.849,0,0,0,3374.31,844.311Z" transform="translate(-3354 -839)"/>
</svg>
