<?xml version="1.0" encoding="utf-8"?>
<!-- Generator: Adobe Illustrator 22.1.0, SVG Export Plug-In . SVG Version: 6.00 Build 0)  -->
<svg version="1.1" id="图层_1" xmlns="http://www.w3.org/2000/svg" xmlns:xlink="http://www.w3.org/1999/xlink" x="0px" y="0px"
	 viewBox="0 0 739 280" style="enable-background:new 0 0 739 280;" xml:space="preserve">
<style type="text/css">
	.st0{fill:#CFD8DC;}
	.st1{fill:#64B5F6;}
	.st2{fill:#FAFAFA;}
	.st3{fill:#2196F3;}
	.st4{fill:#455A64;}
	.st5{fill:#95A5A6;}
	.st6{fill:#ECF0F1;}
	.st7{fill:#BDC3C7;}
	.st8{fill:#27AE60;}
	.st9{fill:#2ECC71;}
	.st10{fill:#999999;}
</style>
<g>
	<g>
		<path class="st0" d="M474.7,0h219.1c16.8,0,30.4,13.6,30.4,30.4v219.1c0,16.8-13.6,30.4-30.4,30.4H474.7
			c-16.8,0-30.4-13.6-30.4-30.4V30.4C444.3,13.6,457.9,0,474.7,0z"/>
		<path class="st1" d="M499.1,170.4h170.4c16.8,0,30.4,13.6,30.4,30.4v24.3c0,16.8-13.6,30.4-30.4,30.4H499.1
			c-16.8,0-30.4-13.6-30.4-30.4v-24.3C468.6,184.1,482.3,170.4,499.1,170.4z"/>
		<circle class="st2" cx="584.3" cy="91.3" r="60.9"/>
		<g>
			<path class="st3" d="M584.3,158.3c-37,0-67-30-67-67s30-67,67-67c37,0,67,30,67,67C651.2,128.3,621.2,158.2,584.3,158.3z
				 M584.3,36.5c-30.3,0-54.8,24.5-54.8,54.8s24.5,54.8,54.8,54.8c30.3,0,54.8-24.5,54.8-54.8S614.5,36.5,584.3,36.5z"/>
			<circle class="st3" cx="584.3" cy="79.1" r="24.3"/>
			<path class="st3" d="M584.3,152.2c16.1,0,31.6-6.4,43-17.8c-8-23.8-33.7-36.5-57.5-28.5c-13.5,4.5-24,15.1-28.5,28.5
				C552.7,145.8,568.1,152.2,584.3,152.2z"/>
		</g>
		<g>
			<path class="st4" d="M527.7,196.6c-2.4-2.4-6.2-2.4-8.6,0l-7.9,7.9l-7.9-7.9c-2.4-2.3-6.3-2.3-8.6,0.1c-2.3,2.4-2.3,6.1,0,8.5
				l7.9,7.9l-7.9,7.9c-2.4,2.3-2.5,6.2-0.1,8.6c2.3,2.4,6.2,2.5,8.6,0.1c0.1,0,0.1-0.1,0.1-0.1l7.9-7.9l7.9,7.9
				c2.3,2.4,6.2,2.5,8.6,0.1c2.4-2.3,2.5-6.2,0.1-8.6c0-0.1-0.1-0.1-0.1-0.1l-7.9-7.9l7.9-7.9C530.1,202.8,530.1,199,527.7,196.6
				C527.7,196.6,527.7,196.6,527.7,196.6z"/>
			<path class="st4" d="M576.4,196.6c-2.4-2.4-6.2-2.4-8.6,0l-7.9,7.9l-7.9-7.9c-2.4-2.3-6.3-2.3-8.6,0.1c-2.3,2.4-2.3,6.1,0,8.5
				l7.9,7.9l-7.9,7.9c-2.4,2.3-2.5,6.2-0.1,8.6c2.3,2.4,6.2,2.5,8.6,0.1c0.1,0,0.1-0.1,0.1-0.1l7.9-7.9l7.9,7.9
				c2.4,2.3,6.3,2.3,8.6-0.1c2.3-2.4,2.3-6.1,0-8.5l-7.9-7.9l7.9-7.9C578.8,202.8,578.8,199,576.4,196.6
				C576.4,196.6,576.4,196.6,576.4,196.6z"/>
			<path class="st4" d="M625.1,196.6c-2.4-2.4-6.2-2.4-8.6,0l-7.9,7.9l-7.9-7.9c-2.4-2.3-6.3-2.3-8.6,0.1c-2.3,2.4-2.3,6.1,0,8.5
				l7.9,7.9l-7.9,7.9c-2.4,2.3-2.5,6.2-0.1,8.6c2.3,2.4,6.2,2.5,8.6,0.1c0.1,0,0.1-0.1,0.1-0.1l7.9-7.9l7.9,7.9
				c2.4,2.3,6.3,2.3,8.6-0.1c2.3-2.4,2.3-6.1,0-8.5l-7.9-7.9l7.9-7.9C627.5,202.8,627.5,199,625.1,196.6
				C625.1,196.6,625.1,196.6,625.1,196.6z"/>
			<path class="st4" d="M665.9,213l7.9-7.9c2.3-2.4,2.3-6.3-0.1-8.6c-2.4-2.3-6.1-2.3-8.5,0l-7.9,7.9l-7.9-7.9
				c-2.4-2.3-6.3-2.3-8.6,0.1c-2.3,2.4-2.3,6.1,0,8.5l7.9,7.9l-7.9,7.9c-2.4,2.3-2.5,6.2-0.1,8.6c2.3,2.4,6.2,2.5,8.6,0.1
				c0.1,0,0.1-0.1,0.1-0.1l7.9-7.9l7.9,7.9c2.4,2.3,6.3,2.3,8.6-0.1c2.3-2.4,2.3-6.1,0-8.5L665.9,213z"/>
		</g>
	</g>
	<g transform="translate(0 -1028.4)">
		<path class="st5" d="M14.4,1041.9v133.2c0,55.9,48.4,106.5,119.8,133.2c71.5-26.6,119.8-77.2,119.8-133.2v-133.2H14.4z"/>
		<path class="st6" d="M14.4,1028.6v133.2c0,55.9,48.4,106.5,119.8,133.2c71.5-26.6,119.8-77.2,119.8-133.2v-133.2H14.4z"/>
		<path class="st7" d="M14.4,1028.6v133.2c0,55.9,48.4,106.5,119.8,133.2v-266.3H14.4z"/>
		<path class="st8" d="M41,1055.2v106.5c0,45.3,37.6,85.2,93.2,106.5c55.6-21.3,93.2-61.2,93.2-106.5v-106.5H41z"/>
		<path class="st9" d="M134.2,1055.2v213c55.6-21.3,93.2-61.2,93.2-106.5v-106.5H134.2z"/>
		<path class="st8" d="M187.5,1121.8l-62.4,61.2l-26-25.3l-22.1,22.6l26,25.3l20.8,21.3l1.3,1.3l84.4-85.2L187.5,1121.8
			L187.5,1121.8z"/>
		<path class="st6" d="M187.5,1108.5l-62.4,61.2l-26-25.3l-22.1,22.6l26,25.3l20.8,21.3l1.3,1.3l84.4-85.2L187.5,1108.5
			L187.5,1108.5z"/>
	</g>
	<g>
		<g>
			<g>
				<path class="st10" d="M430.6,132.9l-39.2-39.2c-2.6-2.6-6.8-2.6-9.4,0c-2.6,2.6-2.6,6.8,0,9.4l27.9,27.9h-72.1
					c-3.6,0-6.6,3-6.6,6.6c0,3.6,2.9,6.6,6.6,6.6h72.1L382.1,172c-2.6,2.6-2.6,6.8,0,9.4c1.3,1.3,3,1.9,4.7,1.9
					c1.7,0,3.4-0.7,4.7-1.9l39.2-39.2C433.1,139.7,433.1,135.5,430.6,132.9z"/>
			</g>
		</g>
		<g>
			<g>
				<path class="st10" d="M311.4,130.9h-15.1c-3.6,0-6.6,3-6.6,6.6c0,3.6,3,6.6,6.6,6.6h15.1c3.6,0,6.6-3,6.6-6.6
					C318,133.9,315.1,130.9,311.4,130.9z"/>
			</g>
		</g>
	</g>
</g>
</svg>
